<svg id="圖層_1" data-name="圖層 1" xmlns="http://www.w3.org/2000/svg" viewBox="0 0 150 150"><defs><style>.cls-1{fill:#0e0e0e;fill-rule:evenodd;}</style></defs><path id="Path_2309" data-name="Path 2309" class="cls-1" d="M116,79.67a33.93,33.93,0,0,1,16.18-28.55,35,35,0,0,0-27.42-14.86C93.06,35.08,81.93,43.15,76,43.15s-15.06-6.67-24.75-6.53a36.7,36.7,0,0,0-31,18.8C7,78.33,16.84,112.38,29.73,131c6.33,9.11,13.83,19.35,23.66,19,9.5-.37,13.09-6.15,24.58-6.15s14.7,6.15,24.75,6c10.22-.18,16.67-9.29,23-18.43A83,83,0,0,0,136.06,110a33.1,33.1,0,0,1-20.13-30.33ZM97.08,23.93A33,33,0,0,0,104.88,0,33.64,33.64,0,0,0,82.79,11.36a31.41,31.41,0,0,0-8,23.2A27.8,27.8,0,0,0,97.07,24Z"/></svg>