<svg id="圖層_1" data-name="圖層 1" xmlns="http://www.w3.org/2000/svg" viewBox="0 0 150 150"><defs><style>.cls-1{fill:#3e82f1;}.cls-1,.cls-2,.cls-3,.cls-4{fill-rule:evenodd;}.cls-2{fill:#32a753;}.cls-3{fill:#f9bb00;}.cls-4{fill:#e74235;}</style></defs><path id="Path_2305" data-name="Path 2305" class="cls-1" d="M149.9,75.2a86.42,86.42,0,0,0-1.4-15.65h-72v29.6h41.16a35.22,35.22,0,0,1-15.22,23.08v19.19h24.71A74.57,74.57,0,0,0,150,75.21Z"/><path id="Path_2306" data-name="Path 2306" class="cls-2" d="M76.49,149.93A73.06,73.06,0,0,0,127.1,131.4l-24.71-19.2A46.14,46.14,0,0,1,33.7,88H8.14v19.82a76.45,76.45,0,0,0,68.35,42.13Z"/><path id="Path_2307" data-name="Path 2307" class="cls-3" d="M33.69,88a45.18,45.18,0,0,1,0-29.06V39.1H8.13a76.63,76.63,0,0,0,0,68.7Z"/><path id="Path_2308" data-name="Path 2308" class="cls-4" d="M75.46,30.47A41.29,41.29,0,0,1,104.7,41.9L126.63,20A73.5,73.5,0,0,0,75.46.05,76.46,76.46,0,0,0,7.11,42.19L32.66,62A45.59,45.59,0,0,1,75.46,30.47Z"/></svg>