<?xml version="1.0" encoding="utf-8"?>
<!-- Generator: Adobe Illustrator 24.0.1, SVG Export Plug-In . SVG Version: 6.00 Build 0)  -->
<svg version="1.1" id="圖層_1" xmlns="http://www.w3.org/2000/svg" xmlns:xlink="http://www.w3.org/1999/xlink" x="0px" y="0px"
	 viewBox="0 0 36.9 35" style="enable-background:new 0 0 36.9 35;" xml:space="preserve">
<style type="text/css">
	.st0{fill:#00C100;}
</style>
<path class="st0" d="M36.9,14.9C36.9,6.7,28.7,0,18.5,0S0,6.7,0,14.9c0,7.5,6.5,13.6,15.5,14.7c0.6,0.2,1.5,0.4,1.7,0.9
	c0.2,0.6,0.2,1.1,0,1.7c0,0-0.2,1.3-0.2,1.5c0,0.6-0.4,1.9,1.7,0.9c2.1-0.7,10.6-6.3,14.5-10.8l0,0C35.6,21.1,36.9,18.1,36.9,14.9z
	 M11.7,19.2c0,0.2-0.2,0.4-0.4,0.4h-5l0,0c-0.2,0-0.2,0-0.2-0.2l0,0l0,0L6,19.2l0,0v-8c0-0.2,0.2-0.4,0.4-0.4h1.3
	C7.8,10.8,8,11,8,11.2v6.3h3.5c0.2,0,0.4,0.2,0.4,0.4L11.7,19.2L11.7,19.2z M14.9,19.2c0,0.2-0.2,0.4-0.4,0.4h-1.3
	c-0.2,0-0.4-0.2-0.4-0.4v-8c0-0.2,0.2-0.4,0.4-0.4h1.3c0.2,0,0.4,0.2,0.4,0.4V19.2z M23.9,19.2c0,0.2-0.2,0.4-0.4,0.4h-1.3l0,0l0,0
	l0,0l0,0l0,0l0,0l0,0l0,0l0,0l0,0l-3.7-5v4.8c0,0.2-0.2,0.4-0.4,0.4h-1.3c-0.2,0-0.4-0.2-0.4-0.4v-8c0-0.2,0.2-0.4,0.4-0.4h1.3l0,0
	l0,0l0,0l0,0l0,0l0,0l0,0l0,0l0,0l0,0l0,0l0,0l0,0l0,0l0,0l0,0l0,0l0,0l0,0l3.7,5v-4.8c0-0.2,0.2-0.4,0.4-0.4h1.3
	c0.2,0,0.4,0.2,0.4,0.4V19.2z M31.1,12.5c0,0.2-0.2,0.4-0.4,0.4h-3.5v1.3h3.5c0.2,0,0.4,0.2,0.4,0.4v1.3c0,0.2-0.2,0.4-0.4,0.4h-3.5
	v1.3h3.5c0.2,0,0.4,0.2,0.4,0.4v1.3c0,0.2-0.2,0.4-0.4,0.4h-5.2l0,0c-0.2,0-0.2,0-0.2-0.2l0,0l0,0l-0.2-0.2l0,0v-8l0,0
	c0-0.2,0-0.2,0.2-0.2l0,0l0,0l0.2-0.2l0,0h5.2c0.2,0,0.4,0.2,0.4,0.4V12.5z"/>
</svg>
